<mxfile host="app.diagrams.net" modified="2024-01-23T05:13:40.984Z" agent="Mozilla/5.0 (Windows NT 10.0; Win64; x64) AppleWebKit/537.36 (KHTML, like Gecko) Chrome/120.0.0.0 Safari/537.36 Edg/120.0.0.0" version="22.1.21" etag="eFbL0znadLYF29RG3B8L" type="github">
  <diagram name="第 1 页" id="q4CbbLfG3Q0FFrWjXfsO">
    <mxGraphModel>
      <root>
        <mxCell id="0" />
        <mxCell id="1" parent="0" />
      </root>
    </mxGraphModel>
  </diagram>
</mxfile>
